#define bullet_width 8
#define bullet_height 8
static unsigned char bullet_bits[] = {
   0x00, 0x3f, 0x20, 0x20, 0x20, 0x20, 0x00, 0x00 };
